<svg id="visual" viewBox="0 0 540 960" width="540" height="960" xmlns="http://www.w3.org/2000/svg" xmlns:xlink="http://www.w3.org/1999/xlink" version="1.1"><rect x="0" y="0" width="540" height="960" fill="#1E1E1E"></rect><defs><linearGradient id="grad1_0" x1="0%" y1="100%" x2="100%" y2="0%"><stop offset="30%" stop-color="#1e1e1e" stop-opacity="1"></stop><stop offset="70%" stop-color="#1e1e1e" stop-opacity="1"></stop></linearGradient></defs><defs><linearGradient id="grad2_0" x1="0%" y1="100%" x2="100%" y2="0%"><stop offset="30%" stop-color="#1e1e1e" stop-opacity="1"></stop><stop offset="70%" stop-color="#1e1e1e" stop-opacity="1"></stop></linearGradient></defs><g transform="translate(540, 960)"><path d="M-297 0C-268.7 -39.8 -240.3 -79.5 -219.1 -126.5C-197.9 -173.5 -183.8 -227.6 -148.5 -257.2C-113.2 -286.8 -56.6 -291.9 0 -297L0 0Z" fill="#69b4ff"></path></g><g transform="translate(0, 0)"><path d="M297 0C277.9 45.1 258.8 90.2 236.4 136.5C214.1 182.8 188.4 230.3 148.5 257.2C108.6 284.2 54.3 290.6 0 297L0 0Z" fill="#69b4ff"></path></g></svg>