<svg id="visual" viewBox="0 0 1440 900" width="1440" height="900" xmlns="http://www.w3.org/2000/svg" xmlns:xlink="http://www.w3.org/1999/xlink" version="1.1"><rect x="0" y="0" width="1440" height="900" fill="#1E1E1E"></rect><defs><linearGradient id="grad1_0" x1="37.5%" y1="100%" x2="100%" y2="0%"><stop offset="17.999999999999996%" stop-color="#1e1e1e" stop-opacity="1"></stop><stop offset="82%" stop-color="#1e1e1e" stop-opacity="1"></stop></linearGradient></defs><defs><linearGradient id="grad2_0" x1="0%" y1="100%" x2="62.5%" y2="0%"><stop offset="17.999999999999996%" stop-color="#1e1e1e" stop-opacity="1"></stop><stop offset="82%" stop-color="#1e1e1e" stop-opacity="1"></stop></linearGradient></defs><g transform="translate(1440, 900)"><path d="M-467 0C-417.4 -59.7 -367.9 -119.3 -335.2 -193.5C-302.4 -267.7 -286.5 -356.4 -233.5 -404.4C-180.4 -452.4 -90.2 -459.7 0 -467L0 0Z" fill="#69b4ff"></path></g><g transform="translate(0, 0)"><path d="M467 0C409.6 55.1 352.2 110.2 320.4 185C288.7 259.8 282.6 354.1 233.5 404.4C184.4 454.7 92.2 460.8 0 467L0 0Z" fill="#69b4ff"></path></g></svg>