<?xml version="1.0" encoding="UTF-8" standalone="no"?>
<!DOCTYPE svg PUBLIC "-//W3C//DTD SVG 1.1//EN" "http://www.w3.org/Graphics/SVG/1.1/DTD/svg11.dtd">
<svg xmlns="http://www.w3.org/2000/svg" version="1.1" viewBox="0 0 1200 901">
<g stroke-width="2.00" fill="none" stroke-linecap="butt">
<path stroke="#b0b83b" vector-effect="non-scaling-stroke" d="
  M 271.52 306.06
  L 271.25 371.71"
/>
<path stroke="#abba5a" vector-effect="non-scaling-stroke" d="
  M 202.71 440.25
  L 116.00 440.21"
/>
<path stroke="#97858d" vector-effect="non-scaling-stroke" d="
  M 271.75 509.29
  L 271.53 555.85"
/>
<path stroke="#9c836e" vector-effect="non-scaling-stroke" d="
  M 387.00 440.54
  L 340.91 440.48
  Q 340.71 440.48 340.54 440.59
  L 340.29 440.75"
/>
</g>
<path fill="#fecc00" d="
  M 271.52 306.06
  L 271.25 371.71
  C 232.79 372.60 203.64 401.87 202.71 440.25
  L 116.00 440.21
  C 117.16 354.77 184.54 285.25 270.98 285.01
  Q 271.49 285.01 271.49 285.52
  L 271.52 306.06
  Z"
/>
<path fill="#61a375" d="
  M 387.00 440.54
  L 340.91 440.48
  Q 340.71 440.48 340.54 440.59
  L 340.29 440.75
  C 340.12 401.67 310.13 372.79 271.25 371.71
  L 271.52 306.06
  C 346.73 307.33 404.64 364.71 405.97 439.96
  A 0.43 0.42 -90.0 0 1 405.55 440.39
  L 387.00 440.54
  Z"
/>
<!-- <rect fill="#727271" x="1042.50" y="349.26" width="11.74" height="173.48" rx="0.27"/>
<rect fill="#727271" x="1091.74" y="349.26" width="11.76" height="173.48" rx="0.36"/>
<path fill="#727271" d="
  M 517.99 358.33
  C 538.68 358.26 562.40 364.91 570.45 386.52
  C 582.27 418.26 565.04 448.91 531.96 455.84
  C 519.70 458.41 502.36 457.35 488.27 457.21
  A 0.77 0.76 -0.0 0 0 487.50 457.97
  L 487.50 522.12
  Q 487.50 522.75 486.88 522.75
  L 476.38 522.75
  Q 475.75 522.75 475.75 522.13
  L 475.75 358.99
  A 0.42 0.42 0.0 0 1 476.17 358.57
  Q 497.04 358.41 517.99 358.33
  Z
  M 561.82 400.00
  C 558.88 377.95 542.02 371.23 522.16 370.56
  Q 505.01 369.97 487.90 370.34
  A 0.41 0.40 -0.7 0 0 487.50 370.74
  L 487.50 444.78
  Q 487.50 445.44 488.16 445.45
  Q 501.97 445.60 515.79 445.49
  C 543.21 445.27 565.81 430.02 561.82 400.00
  Z"
/>
<path fill="#727271" d="
  M 965.53 526.04
  C 889.75 534.83 883.48 401.50 957.04 398.39
  C 1028.72 395.35 1032.62 518.25 965.53 526.04
  Z
  M 934.18 505.56
  Q 941.60 512.00 949.50 513.58
  C 1001.27 523.89 1014.44 454.00 989.18 423.58
  C 975.68 407.33 950.06 405.72 934.21 418.86
  C 910.77 438.31 911.45 485.83 934.18 505.56
  Z"
/>
<path fill="#727271" d="
  M 675.50 507.74
  A 0.54 0.54 0.0 0 0 674.55 507.39
  Q 660.49 524.02 638.93 525.86
  C 617.57 527.68 595.86 516.43 595.63 492.63
  C 595.23 451.26 645.80 450.90 674.04 451.86
  Q 675.34 451.90 675.40 450.61
  C 676.62 427.63 672.00 408.47 643.99 410.31
  Q 627.72 411.38 613.44 419.22
  Q 612.98 419.47 612.75 419.01
  L 607.88 409.56
  Q 607.59 409.00 608.15 408.70
  C 640.37 391.25 687.27 392.20 687.27 441.00
  Q 687.28 481.58 687.23 522.16
  Q 687.23 522.76 686.63 522.76
  L 676.11 522.72
  Q 675.50 522.72 675.50 522.11
  L 675.50 507.74
  Z
  M 608.18 485.37
  C 604.96 497.47 611.28 510.12 623.99 513.00
  C 649.09 518.68 661.25 506.02 675.19 488.19
  Q 675.50 487.79 675.50 487.29
  L 675.50 464.25
  Q 675.50 463.64 674.89 463.62
  C 656.38 462.96 614.61 461.23 608.18 485.37
  Z"
/>
<path fill="#727271" d="
  M 837.15 418.89
  C 851.27 399.52 865.35 397.88 888.70 400.19
  A 0.55 0.55 0.0 0 1 889.19 400.81
  L 887.67 411.46
  Q 887.60 411.95 887.11 411.90
  Q 878.39 411.00 869.76 411.34
  C 851.71 412.04 842.75 430.18 837.86 444.88
  Q 836.79 448.10 836.78 451.93
  Q 836.72 487.12 836.76 522.39
  A 0.35 0.35 0.0 0 1 836.41 522.74
  L 825.28 522.75
  A 0.53 0.53 0.0 0 1 824.75 522.22
  L 824.75 402.66
  A 0.40 0.40 0.0 0 1 825.15 402.26
  L 836.14 402.25
  Q 836.78 402.25 836.78 402.89
  L 836.69 418.75
  Q 836.69 419.52 837.15 418.89
  Z"
/>
<path fill="#727271" d="
  M 755.94 505.32
  A 0.23 0.23 0.0 0 0 756.36 505.32
  L 796.09 402.75
  Q 796.29 402.25 796.82 402.25
  L 808.26 402.25
  A 0.43 0.42 10.7 0 1 808.66 402.83
  Q 779.77 477.53 750.76 552.25
  Q 748.93 556.97 745.25 562.78
  C 734.27 580.11 722.47 578.84 704.01 576.95
  A 0.46 0.46 0.0 0 1 703.59 576.45
  L 704.52 565.73
  A 0.57 0.56 -84.5 0 1 705.14 565.21
  C 709.58 565.67 714.05 565.89 718.51 566.30
  C 731.79 567.53 737.17 554.43 741.27 544.10
  Q 745.53 533.37 749.66 522.59
  Q 749.82 522.17 749.66 521.74
  L 703.81 402.68
  A 0.32 0.31 -10.2 0 1 704.11 402.26
  L 715.72 402.25
  Q 716.25 402.25 716.44 402.74
  L 755.94 505.32
  Z"
/> -->
<path fill="#57a7b3" d="
  M 116.00 440.21
  L 202.71 440.25
  C 203.52 479.26 232.83 507.98 271.75 509.29
  L 271.53 555.85
  L 271.47 614.78
  Q 271.47 615.29 270.97 615.28
  C 173.94 614.97 97.30 536.71 96.57 440.82
  A 0.41 0.41 0.0 0 1 96.98 440.41
  L 116.00 440.21
  Z"
/>
<path fill="#d76266" d="
  M 387.00 440.54
  C 387.64 504.64 334.50 555.84 271.53 555.85
  L 271.75 509.29
  C 310.33 508.22 338.99 479.38 340.29 440.75
  L 340.54 440.59
  Q 340.71 440.48 340.91 440.48
  L 387.00 440.54
  Z"
/>
</svg>
