<svg id="visual" viewBox="0 0 900 450" width="900" height="450" xmlns="http://www.w3.org/2000/svg" xmlns:xlink="http://www.w3.org/1999/xlink" version="1.1"><rect x="0" y="0" width="900" height="450" fill="#1e1e1e"></rect><path d="M0 240L37.5 222.7C75 205.3 150 170.7 225 173.7C300 176.7 375 217.3 450 240C525 262.7 600 267.3 675 264.7C750 262 825 252 862.5 247L900 242L900 451L862.5 451C825 451 750 451 675 451C600 451 525 451 450 451C375 451 300 451 225 451C150 451 75 451 37.5 451L0 451Z" fill="#2d2d2d" stroke-linecap="round" stroke-linejoin="miter"></path></svg>